<svg id="Layer_1" data-name="Layer 1" xmlns="http://www.w3.org/2000/svg" viewBox="0 0 640 640"><defs><style>.cls-1{fill:#fff;}</style></defs><g id="Steam_Icon" data-name="Steam Icon"><g id="Steam"><path class="cls-1" d="M349.45.81C167.72-15.71,13.88,119.58,0,294.29l171.81,71a90.1,90.1,0,0,1,51.06-15.78c1.7,0,3.39,0,5.06.14l76.41-110.75c0-.52,0-1,0-1.56A121,121,0,0,1,439,117.26c55.37,6.16,100.13,50.9,106.32,106.26A121,121,0,0,1,425.22,358.28c-.92,0-1.83,0-2.74,0L313.51,436c.05,1.43.1,2.86.1,4.3a90.74,90.74,0,0,1-179.7,17.88L11,407.36c38,134.55,161.66,233.19,308.41,233.19,185.16,0,333.65-157,319.63-345.13C627.55,140.66,504,14.86,349.45.81Z"/><path class="cls-1" d="M202.77,485.84,163.4,469.57a68.09,68.09,0,1,0,37.26-93.1l40.68,16.82a50.13,50.13,0,1,1-38.57,92.55Z"/><path class="cls-1" d="M507.66,237.38a80.56,80.56,0,1,0-80.55,80.54A80.65,80.65,0,0,0,507.66,237.38Zm-140.93-.14a60.51,60.51,0,1,1,60.51,60.51A60.51,60.51,0,0,1,366.73,237.24Z"/></g></g></svg>